<svg width="40" height="40" viewBox="0 0 40 40" fill="none" xmlns="http://www.w3.org/2000/svg">
<path d="M20.5 3L25.6299 8.1154L32.8744 8.12563L32.8846 15.3701L38 20.5L32.8846 25.6299L32.8744 32.8744L25.6299 32.8846L20.5 38L15.3701 32.8846L8.12563 32.8744L8.1154 25.6299L3 20.5L8.1154 15.3701L8.12563 8.12563L15.3701 8.1154L20.5 3Z" fill="black"/>
<path fill-rule="evenodd" clip-rule="evenodd" d="M27.6072 13.3736C28.1212 13.8812 28.1322 14.7153 27.6317 15.2367L19.4619 25.6016C19.203 25.8713 18.8426 26.0158 18.4718 25.9986C18.101 25.9814 17.7551 25.8041 17.5216 25.5115L12.2894 20.4087C11.838 19.8431 11.9241 19.0135 12.4817 18.5556C13.0393 18.0978 13.8573 18.1851 14.3087 18.7507L18.6207 22.7006L25.7703 13.3984C26.2708 12.8771 27.0932 12.8659 27.6072 13.3736Z" fill="white"/>
</svg>
