<?xml version="1.0" encoding="UTF-8"?>
<svg id="Layer_2" data-name="Layer 2" xmlns="http://www.w3.org/2000/svg" viewBox="0 0 377.23 211.96">
  <defs>
    <style>
      .cls-1 {
        fill: #fff;
      }
    </style>
  </defs>
  <g id="Layer_2-2" data-name="Layer 2">
    <g>
      <g>
        <path class="cls-1" d="M87.32,54.36c-3.21-3.98-8.21-6.8-15.02-8.43,4.49-1.56,7.89-3.66,10.2-6.35,3.49-4,5.24-8.8,5.24-14.38,0-6.69-2.45-12.28-7.34-16.8-4.88-4.52-11.89-6.79-21.03-6.79H4.59V96.32H55.11c2.15,0,6.53-.43,13.11-1.3,4.96-.64,8.66-1.67,11.12-3.08,3.97-2.28,7.09-5.39,9.37-9.3,2.28-3.94,3.42-8.34,3.42-13.25,0-6.04-1.6-11.04-4.81-15.02ZM34.11,20.8h12.92c4.44,0,7.55,.78,9.34,2.32,1.79,1.55,2.67,3.71,2.67,6.47,0,2.96-.88,5.24-2.67,6.8-1.79,1.59-4.97,2.38-9.52,2.38h-12.74V20.8Zm25.58,52.48c-2.06,1.79-5.6,2.69-10.66,2.69h-14.92v-19.2h14.87c5.12,0,8.71,.86,10.75,2.55,2.04,1.71,3.08,3.95,3.08,6.76,0,3.01-1.03,5.4-3.11,7.2Z"/>
        <path class="cls-1" d="M134.07,73V1.61h-29.28V96.32h26.27l8.76-23.32h-5.76Z"/>
        <path class="cls-1" d="M246.67,7.23c-6.82-4.82-16.19-7.23-28.12-7.23-7.3,0-13.79,.95-19.49,2.9l8.61,22.87c3.11-2.59,6.96-3.88,11.58-3.88,2.95,0,5.59,.61,7.96,1.83,2.36,1.19,4.36,2.92,6.01,5.15,.98,1.35,1.93,3.43,2.83,6.33l25.84-5.73c-3.31-10-8.38-17.4-15.22-22.24Zm-64.4,18.92l-10.34,34.06h20.8l-10.46-34.06Z"/>
        <path class="cls-1" d="M262.8,65.3c-1.72,7.2-4.45,13.22-8.14,18.03-3.71,4.83-8.31,8.47-13.8,10.92-2.02,.9-4.23,1.64-6.66,2.21l-.04-.13-8.14-21.68c1.93-.79,3.55-1.93,4.89-3.38,2.87-3.15,4.95-7.72,6.23-13.7l25.66,7.74Z"/>
        <polygon class="cls-1" points="203.53 96.32 160.95 96.32 165.56 80.68 198.79 80.68 203.53 96.32"/>
        <path class="cls-1" d="M338.78,37.36L373.34,1.61h-38.92l-30.66,35.79V1.61h-29.26V96.32h29.26v-23.12l15.12-15.82,19.96,38.94h36.07l-36.12-58.96Z"/>
        <path class="cls-1" d="M179.75,80.59v.09h.07s-.05-.05-.07-.09Z"/>
      </g>
      <g>
        <path class="cls-1" d="M49.08,135.78c4.19,0,7.64,.91,10.34,2.75,2.7,1.84,4.61,4.51,5.74,8h14.53v-23.5c-2.14-1.5-4.51-2.72-7.12-3.69-5.07-1.84-12.69-2.75-22.87-2.75s-18.99,1.49-25.22,4.46c-8.03,3.86-14.08,9.51-18.24,16.96-4.15,7.45-6.23,16.2-6.23,26.25s1.9,18.04,5.69,25.42c3.8,7.39,9.15,12.94,16.04,16.68,6.91,3.74,15.81,5.6,26.77,5.6,8.9,0,16.57-1.04,23.05-3.12,2.56-.82,5.29-1.93,8.14-3.32v-47.73h-29.81v19.19h19.06v8.68c-3.72,2.24-7.03,3.82-9.93,4.73-2.9,.93-5.94,1.37-9.13,1.37-6.71,0-11.94-2.12-15.69-6.4-3.74-4.29-5.63-11.42-5.63-21.39,0-9.39,1.85-17.35,5.57-21.69,3.7-4.33,8.68-6.49,14.95-6.49Z"/>
        <path class="cls-1" d="M140.81,118.17v.82c.63,.1,1.22,.18,1.81,.29,1.79,.32,3.38,.7,4.78,1.16,4.66,1.5,8.41,4.3,11.25,8.4,2.85,4.08,4.28,9.07,4.28,14.94,0,5.12-1.09,9.51-3.28,13.25-2.18,3.7-5.19,6.71-9.01,9.02-2.04,1.23-4.72,2.3-8.03,3.16-.58,.15-1.18,.31-1.81,.45v.09c.65,.22,1.26,.43,1.81,.65,2.39,.89,4.22,1.81,5.43,2.7,1.07,.75,2.59,2.37,4.57,4.85,1.98,2.47,3.33,4.39,3.99,5.72l12.76,24.73V118.17h-28.56Z"/>
        <path class="cls-1" d="M248.77,118.17v51.02l-34.74-51.02h-26.6v92.22h26.81v-50.65l34.54,50.65h26.87V118.17h-26.87Z"/>
        <path class="cls-1" d="M374.96,146.08c-1.51-5.62-3.94-10.54-7.3-14.78-3.35-4.22-7.59-7.47-12.72-9.75-5.15-2.25-11.89-3.38-20.24-3.38h-42.32v92.22h42.32c5.09,0,10.74-.85,16.99-2.52,4.57-1.21,8.85-3.65,12.83-7.32,3.98-3.67,7.09-8.23,9.34-13.66,2.25-5.44,3.37-13.08,3.37-22.92,0-6.31-.78-12.27-2.27-17.88Zm-28.49,34.45c-1.43,3.29-3.4,5.6-5.92,6.93-2.51,1.31-6.75,1.97-12.71,1.97h-6.97v-50.39h7.1c7.39,0,12.67,1.8,15.86,5.41,3.18,3.61,4.78,10.28,4.78,20.06,0,7.39-.72,12.72-2.13,16.02Z"/>
        <path class="cls-1" d="M134.31,146.03c0,2.02-.61,3.79-1.81,5.35-.59,.78-1.27,1.41-2.04,1.9h0c-.77,.48-1.64,.81-2.57,1-.69,.16-1.35,.3-1.96,.43-.21,.04-.41,.08-.61,.12-.39,.08-.76,.14-1.1,.22h0c-.22,.04-.43,.08-.64,.12-1.43,.25-2.51,.37-3.22,.37h-12.01v-18.76h12.51c2.57,0,4.73,.19,6.48,.58,.25,.06,.5,.12,.73,.18,.21,.06,.41,.12,.61,.18,.1,.03,.21,.06,.3,.1,1.04,.36,1.87,.81,2.52,1.36h0c.12,.11,.23,.21,.35,.32,.26,.25,.49,.5,.71,.76,.15,.19,.3,.4,.44,.61,.09,.13,.17,.26,.24,.4,.22,.4,.41,.81,.56,1.25,.04,.13,.09,.26,.13,.4,.28,.94,.42,1.98,.42,3.11Z"/>
        <path class="cls-1" d="M138.21,210.38h-29.89v-37.42h2.5c.49,0,.97,.03,1.45,.08,.79,.08,1.54,.24,2.27,.46,.14,.04,.29,.09,.43,.14,1,.34,1.95,.82,2.85,1.44,0,0,0,0,0,0,.14,.1,.28,.21,.43,.34h0c.14,.13,.29,.26,.43,.41,.6,.59,1.22,1.36,1.87,2.31,.22,.32,.44,.65,.66,1,.56,.89,1.14,1.9,1.74,3.03l15.23,28.19Z"/>
      </g>
    </g>
  </g>
</svg>