<?xml version="1.0" encoding="UTF-8"?>
<svg id="Layer_2" data-name="Layer 2" xmlns="http://www.w3.org/2000/svg" viewBox="0 0 468 432">
  <defs>
    <style>
      .cls-1 {
        fill: #231f20;
      }
    </style>
  </defs>
  <g id="Layer_2-2" data-name="Layer 2">
    <g>
      <polygon class="cls-1" points="117 328.5 117 261 249 261 297 261 297 292.5 243 328.5 117 328.5"/>
      <polygon class="cls-1" points="117 171 117 117 165 117 216 117 216 144 171 171 117 171"/>
      <polygon class="cls-1" points="468 0 360 72 48 72 57.6 57.6 72 48 144 0 468 0"/>
      <polygon class="cls-1" points="72 48 72 360 24 432 0 432 0 144 48 72 57.6 57.6 72 48"/>
      <polygon class="cls-1" points="432 144 432 288 384 360 374.4 374.4 360 384 360 216 408 144 432 144"/>
      <polygon class="cls-1" points="432 144 432 168 360 216 180 216 288 144 432 144"/>
      <polyline class="cls-1" points="374.4 374.4 360 384 288 432 24 432 0 432 0 408 72 360 360 360 384 360"/>
    </g>
  </g>
</svg>