<?xml version="1.0" encoding="UTF-8"?>
<svg id="Layer_2" data-name="Layer 2" xmlns="http://www.w3.org/2000/svg" viewBox="0 0 408.49 377.07">
  <defs>
    <style>
      .cls-1 {
        fill: #fff;
      }
    </style>
  </defs>
  <g id="Layer_2-2" data-name="Layer 2">
    <g>
      <polygon class="cls-1" points="102.12 286.73 102.12 227.81 217.34 227.81 259.24 227.81 259.24 255.31 212.1 286.73 102.12 286.73"/>
      <polygon class="cls-1" points="102.12 149.26 102.12 102.12 144.02 102.12 188.54 102.12 188.54 125.69 149.26 149.26 102.12 149.26"/>
      <polygon class="cls-1" points="408.49 0 314.23 62.85 41.9 62.85 50.28 50.28 62.85 41.9 125.69 0 408.49 0"/>
      <polygon class="cls-1" points="62.85 41.9 62.85 314.23 20.95 377.07 0 377.07 0 125.69 41.9 62.85 50.28 50.28 62.85 41.9"/>
      <polygon class="cls-1" points="377.07 125.69 377.07 251.38 335.17 314.23 326.8 326.8 314.23 335.17 314.23 188.54 356.12 125.69 377.07 125.69"/>
      <polygon class="cls-1" points="377.07 125.69 377.07 146.64 314.23 188.54 157.11 188.54 251.38 125.69 377.07 125.69"/>
      <polyline class="cls-1" points="326.8 326.8 314.23 335.17 251.38 377.07 20.95 377.07 0 377.07 0 356.12 62.85 314.23 314.23 314.23 335.17 314.23"/>
    </g>
  </g>
</svg>